<?xml version="1.0" encoding="UTF-8" standalone="no"?>
<!DOCTYPE svg PUBLIC "-//W3C//DTD SVG 1.1//EN" "http://www.w3.org/Graphics/SVG/1.1/DTD/svg11.dtd">
<svg width="100%" height="100%" viewBox="0 0 912 1828" version="1.1" xmlns="http://www.w3.org/2000/svg" xmlns:xlink="http://www.w3.org/1999/xlink" xml:space="preserve" xmlns:serif="http://www.serif.com/" style="fill-rule:evenodd;clip-rule:evenodd;stroke-linejoin:round;stroke-miterlimit:2;">
    <g transform="matrix(2.778116,0,0,2.778116,-25341.951547,-475.057751)">
        <path d="M9187.794,335.5L9187.793,348.331C9187.793,359.846 9196.348,368.4 9207.863,368.4L9450.007,368.4L9450.007,383.863C9450.007,412.815 9428.622,434.2 9399.67,434.2L9207.862,434.2C9196.347,434.2 9187.793,441.109 9187.793,450.65C9187.793,460.191 9196.347,467.1 9207.862,467.1L9399.67,467.1C9428.622,467.1 9450.007,488.485 9450.007,517.437L9450.007,581.263C9450.007,610.215 9428.622,631.6 9399.67,631.6L9207.862,631.6C9196.347,631.6 9187.793,640.154 9187.793,651.669L9187.793,743.131C9187.793,754.646 9196.347,763.2 9207.862,763.2L9399.67,763.2C9428.622,763.2 9450.007,784.585 9450.007,813.537L9450.007,829L9172.33,829C9143.378,829 9121.993,807.615 9121.993,778.663L9121.993,616.137C9121.993,587.185 9143.378,565.8 9172.33,565.8L9364.138,565.8C9375.653,565.8 9384.207,558.891 9384.207,549.35C9384.207,539.809 9375.653,532.9 9364.138,532.9L9172.33,532.9C9143.378,532.9 9121.993,511.515 9121.993,482.563L9121.993,221.337C9121.993,192.385 9143.378,171 9172.33,171L9450.007,171L9450.007,186.463C9450.007,215.415 9428.622,236.8 9399.67,236.8L9207.863,236.8C9196.348,236.8 9187.793,245.354 9187.793,256.869L9187.794,269.7L9364.467,269.7L9364.467,285.163C9364.467,314.115 9343.082,335.5 9314.13,335.5L9187.794,335.5ZM9281.746,658.371L9281.746,672.433C9281.746,676.314 9278.596,679.464 9274.715,679.464L9253.622,679.464C9249.742,679.464 9246.591,676.314 9246.591,672.433L9246.591,658.371C9246.591,654.491 9249.742,651.34 9253.622,651.34L9274.715,651.34C9278.596,651.34 9281.746,654.491 9281.746,658.371ZM9323.933,658.371L9323.933,672.433C9323.933,676.314 9320.782,679.464 9316.902,679.464L9295.809,679.464C9291.928,679.464 9288.778,676.314 9288.778,672.433L9288.778,658.371C9288.778,654.491 9291.928,651.34 9295.809,651.34L9316.902,651.34C9320.782,651.34 9323.933,654.491 9323.933,658.371ZM9366.119,658.371L9366.119,672.433C9366.119,676.314 9362.969,679.464 9359.088,679.464L9337.995,679.464C9334.114,679.464 9330.964,676.314 9330.964,672.433L9330.964,658.371C9330.964,654.491 9334.114,651.34 9337.995,651.34L9359.088,651.34C9362.969,651.34 9366.119,654.491 9366.119,658.371ZM9408.306,658.371L9408.306,672.433C9408.306,676.314 9405.155,679.464 9401.275,679.464L9380.181,679.464C9376.301,679.464 9373.15,676.314 9373.15,672.433L9373.15,658.371C9373.15,654.491 9376.301,651.34 9380.181,651.34L9401.275,651.34C9405.155,651.34 9408.306,654.491 9408.306,658.371ZM9238.33,691.271L9238.33,705.333C9238.33,709.214 9235.179,712.364 9231.299,712.364L9210.205,712.364C9206.325,712.364 9203.174,709.214 9203.174,705.333L9203.174,691.271C9203.174,687.391 9206.325,684.24 9210.205,684.24L9231.299,684.24C9235.179,684.24 9238.33,687.391 9238.33,691.271ZM9281.746,691.271L9281.746,705.333C9281.746,709.214 9278.596,712.364 9274.715,712.364L9253.622,712.364C9249.742,712.364 9246.591,709.214 9246.591,705.333L9246.591,691.271C9246.591,687.391 9249.742,684.24 9253.622,684.24L9274.715,684.24C9278.596,684.24 9281.746,687.391 9281.746,691.271ZM9323.933,691.271L9323.933,705.333C9323.933,709.214 9320.782,712.364 9316.902,712.364L9295.809,712.364C9291.928,712.364 9288.778,709.214 9288.778,705.333L9288.778,691.271C9288.778,687.391 9291.928,684.24 9295.809,684.24L9316.902,684.24C9320.782,684.24 9323.933,687.391 9323.933,691.271ZM9366.119,691.271L9366.119,705.333C9366.119,709.214 9362.969,712.364 9359.088,712.364L9337.995,712.364C9334.114,712.364 9330.964,709.214 9330.964,705.333L9330.964,691.271C9330.964,687.391 9334.114,684.24 9337.995,684.24L9359.088,684.24C9362.969,684.24 9366.119,687.391 9366.119,691.271ZM9408.306,691.271L9408.306,705.333C9408.306,709.214 9405.155,712.364 9401.275,712.364L9380.181,712.364C9376.301,712.364 9373.15,709.214 9373.15,705.333L9373.15,691.271C9373.15,687.391 9376.301,684.24 9380.181,684.24L9401.275,684.24C9405.155,684.24 9408.306,687.391 9408.306,691.271ZM9238.33,724.171L9238.33,738.233C9238.33,742.114 9235.179,745.264 9231.299,745.264L9210.205,745.264C9206.325,745.264 9203.174,742.114 9203.174,738.233L9203.174,724.171C9203.174,720.291 9206.325,717.14 9210.205,717.14L9231.299,717.14C9235.179,717.14 9238.33,720.291 9238.33,724.171ZM9281.746,724.171L9281.746,738.233C9281.746,742.114 9278.596,745.264 9274.715,745.264L9253.622,745.264C9249.742,745.264 9246.591,742.114 9246.591,738.233L9246.591,724.171C9246.591,720.291 9249.742,717.14 9253.622,717.14L9274.715,717.14C9278.596,717.14 9281.746,720.291 9281.746,724.171ZM9323.933,724.171L9323.933,738.233C9323.933,742.114 9320.782,745.264 9316.902,745.264L9295.809,745.264C9291.928,745.264 9288.778,742.114 9288.778,738.233L9288.778,724.171C9288.778,720.291 9291.928,717.14 9295.809,717.14L9316.902,717.14C9320.782,717.14 9323.933,720.291 9323.933,724.171ZM9366.119,724.171L9366.119,738.233C9366.119,742.114 9362.969,745.264 9359.088,745.264L9337.995,745.264C9334.114,745.264 9330.964,742.114 9330.964,738.233L9330.964,724.171C9330.964,720.291 9334.114,717.14 9337.995,717.14L9359.088,717.14C9362.969,717.14 9366.119,720.291 9366.119,724.171Z" style="fill:white;"/>
    </g>
</svg>
